HIERARCHY
ROOT Hips
{
	OFFSET 0.00000 0.00000 0.00000
	CHANNELS 6 Xposition Yposition Zposition Zrotation Yrotation Xrotation 
	JOINT LHipJoint
	{
		OFFSET 0 0 0
		CHANNELS 3 Zrotation Yrotation Xrotation
		JOINT LeftUpLeg
		{
			OFFSET 1.60223 -1.58443 0.78595
			CHANNELS 3 Zrotation Yrotation Xrotation
			JOINT LeftLeg
			{
				OFFSET 2.21690 -6.09089 0.00000
				CHANNELS 3 Zrotation Yrotation Xrotation
				JOINT LeftFoot
				{
					OFFSET 2.34805 -6.45122 0.00000
					CHANNELS 3 Zrotation Yrotation Xrotation
					JOINT LeftToeBase
					{
						OFFSET 0.35452 -0.97402 1.38549
						CHANNELS 3 Zrotation Yrotation Xrotation
						End Site
						{
							OFFSET 0.00000 -0.00000 0.82816
						}
					}
				}
			}
		}
	}
	JOINT RHipJoint
	{
		OFFSET 0 0 0
		CHANNELS 3 Zrotation Yrotation Xrotation
		JOINT RightUpLeg
		{
			OFFSET -1.56524 -1.58443 0.78595
			CHANNELS 3 Zrotation Yrotation Xrotation
			JOINT RightLeg
			{
				OFFSET -2.15558 -5.92241 0.00000
				CHANNELS 3 Zrotation Yrotation Xrotation
				JOINT RightFoot
				{
					OFFSET -2.35077 -6.45870 0.00000
					CHANNELS 3 Zrotation Yrotation Xrotation
					JOINT RightToeBase
					{
						OFFSET -0.26910 -0.73935 1.33295
						CHANNELS 3 Zrotation Yrotation Xrotation
						End Site
						{
							OFFSET -0.00000 -0.00000 0.75962
						}
					}
				}
			}
		}
	}
	JOINT LowerBack
	{
		OFFSET 0 0 0
		CHANNELS 3 Zrotation Yrotation Xrotation
		JOINT Spine
		{
			OFFSET -0.05489 1.97104 -0.02993
			CHANNELS 3 Zrotation Yrotation Xrotation
			JOINT Spine1
			{
				OFFSET -0.00702 1.94230 0.13626
				CHANNELS 3 Zrotation Yrotation Xrotation
				JOINT Neck
				{
					OFFSET 0 0 0
					CHANNELS 3 Zrotation Yrotation Xrotation
					JOINT Neck1
					{
						OFFSET -0.07858 1.62869 -0.02510
						CHANNELS 3 Zrotation Yrotation Xrotation
						JOINT Head
						{
							OFFSET 0.13978 1.59213 -0.29859
							CHANNELS 3 Zrotation Yrotation Xrotation
							End Site
							{
								OFFSET 0.05353 1.64420 -0.10000
							}
						}
					}
				}
				JOINT LeftShoulder
				{
					OFFSET 0 0 0
					CHANNELS 3 Zrotation Yrotation Xrotation
					JOINT LeftArm
					{
						OFFSET 3.48263 1.15278 0.52941
						CHANNELS 3 Zrotation Yrotation Xrotation
						JOINT LeftForeArm
						{
							OFFSET 4.59207 -0.00000 -0.00000
							CHANNELS 3 Zrotation Yrotation Xrotation
							JOINT LeftHand
							{
								OFFSET 2.98109 -0.00000 -0.00000
								CHANNELS 3 Zrotation Yrotation Xrotation
								JOINT LeftFingerBase
								{
									OFFSET 0 0 0
									CHANNELS 3 Zrotation Yrotation Xrotation
									JOINT LeftHandIndex1
									{
										OFFSET 0.48020 -0.00000 -0.00000
										CHANNELS 3 Zrotation Yrotation Xrotation
										End Site
										{
											OFFSET 0.38715 -0.00000 -0.00000
										}
									}
								}
								JOINT LThumb
								{
									OFFSET 0 0 0
									CHANNELS 3 Zrotation Yrotation Xrotation
									End Site
									{
										OFFSET 0.39306 -0.00000 0.39306
									}
								}
							}
						}
					}
				}
				JOINT RightShoulder
				{
					OFFSET 0 0 0
					CHANNELS 3 Zrotation Yrotation Xrotation
					JOINT RightArm
					{
						OFFSET -3.52496 1.12722 0.24548
						CHANNELS 3 Zrotation Yrotation Xrotation
						JOINT RightForeArm
						{
							OFFSET -4.76508 -0.00000 -0.00000
							CHANNELS 3 Zrotation Yrotation Xrotation
							JOINT RightHand
							{
								OFFSET -2.78902 -0.00000 -0.00000
								CHANNELS 3 Zrotation Yrotation Xrotation
								JOINT RightFingerBase
								{
									OFFSET 0 0 0
									CHANNELS 3 Zrotation Yrotation Xrotation
									JOINT RightHandIndex1
									{
										OFFSET -0.72130 -0.00000 -0.00000
										CHANNELS 3 Zrotation Yrotation Xrotation
										End Site
										{
											OFFSET -0.58153 -0.00000 -0.00000
										}
									}
								}
								JOINT RThumb
								{
									OFFSET 0 0 0
									CHANNELS 3 Zrotation Yrotation Xrotation
									End Site
									{
										OFFSET -0.59041 -0.00000 0.59041
									}
								}
							}
						}
					}
				}
			}
		}
	}
}
MOTION
Frames: 11
Frame Time: 0.008
0.00 0.00 0.00 0 0 0 0 0 0 -21 0 0 0 0 0 0 0 0 0 0 0 0 0 0 21 0 0 0 0 0 0 0 0 0 0 0 0 0 0 0 0 0 0 0 0 0 0 -16 0 0 21 0 0 11 0 0 0 -8 0 0 0 0 0 0 0 0 0 0 0 0 0 0 0 0 0 0 0 0 8 0 0 0 0 0 0 0 0 0 0 0 0 0 0 0 0 0
0.00 0.00 0.00 157.7530 -86.9147 -152.3550 0.0000 0.0000 0.0000 -24.3663 -1.2667 -14.6746 2.5745 9.9722 28.8867 1.7993 -7.7104 -24.0524 0.4386 -4.2497 -11.7802 0.0000 0.0000 0.0000 17.9627 4.1222 -19.3537 -2.7270 -10.2393 29.7553 -1.0939 -2.7075 -20.9046 -0.0302 -1.1212 3.0824 -2.7339 3.0043 -0.8378 -2.6065 3.8231 -3.7771 -1.2375 1.9114 -3.4216 -12.1474 -5.4724 -1.9423 17.6654 -8.0110 4.0906 7.1404 -3.8862 2.7427 0.0000 -0.0000 0.0000 -93.6414 10.6807 9.3557 19.6488 -30.2169 -5.3535 -0.0000 -0.0000 15.4380 34.3083 37.2327 22.4341 -7.1250 0.0000 -0.0000 0.2270 72.5939 0.1487 0.0000 -0.0000 0.0000 100.5153 -6.4463 -2.7771 -14.7959 23.8610 -3.1429 0.0000 0.0000 8.2744 1.7227 37.4961 1.0488 7.1250 -0.0000 -0.0000 18.7571 5.8061 21.7013
0.00 0.00 0.00 183.6240 -81.8728 -179.4390 0.0000 0.0000 0.0000 -17.2167 -4.9465 -20.5356 6.2610 14.6766 46.0205 2.3450 -2.3122 -28.3761 2.7061 -10.2034 -29.6378 0.0000 0.0000 0.0000 25.0742 5.3725 -14.5647 -2.8709 -10.4831 30.5559 -1.5837 0.7509 -23.5804 -0.1017 -2.0565 5.6618 0.9723 -1.2336 5.5636 -1.9306 -1.9483 -7.5897 -2.3130 -1.2041 -11.3735 -5.1250 1.2720 -5.7004 12.4357 0.5237 11.8032 4.7308 0.6351 4.3799 0.0000 0.0000 0.0000 -96.2360 17.9930 10.1079 31.8695 -42.4429 -12.6526 -0.0000 -0.0000 5.6434 34.1716 33.7504 20.6648 -7.1250 0.0000 -0.0000 2.4192 68.8906 1.3859 0.0000 0.0000 0.0000 99.5300 -12.0649 14.9464 -17.6426 27.6971 -4.3819 0.0000 -0.0000 -2.4710 5.7052 38.8594 3.5867 7.1250 -0.0000 -0.0000 20.7520 6.8514 24.6628
0.00 0.00 0.00 397.8820 -81.6927 -396.6460 0.0000 0.0000 0.0000 -28.0638 -11.5591 -18.0389 4.3934 12.6662 38.1315 0.8919 -13.3264 -18.0264 0.8221 -5.7853 -16.1626 0.0000 0.0000 0.0000 13.7826 -5.3043 -11.0488 -5.2866 -13.6994 42.0465 -1.6918 -4.7109 -26.6428 -0.4580 4.3415 -12.0395 2.3440 3.3959 3.2444 -6.7906 4.0883 -5.9552 -8.9564 1.5703 -7.4392 -14.5913 -7.3129 2.5732 18.4542 -12.1474 10.5700 7.6910 -6.1421 4.7025 -0.0000 -0.0000 0.0000 -93.8248 -3.0584 32.1034 76.6155 -59.3122 -48.4355 -0.0000 -0.0000 7.8587 43.6367 25.8578 22.5807 -7.1250 0.0000 -0.0000 17.8991 62.9154 7.9183 -0.0000 -0.0000 0.0000 99.6495 -21.1058 24.2779 -66.1038 57.7284 -39.4631 0.0000 -0.0000 -9.0374 1.7375 44.8286 1.2251 7.1250 -0.0000 -0.0000 19.0598 12.7613 23.9965
0.00 0.00 0.00 525.1540 -77.3952 -520.1050 0.0000 0.0000 0.0000 -26.0309 -6.5614 -18.7738 3.3754 11.2793 33.2277 1.7832 -4.7782 -24.1749 0.6132 -5.0117 -13.9420 0.0000 0.0000 0.0000 15.0138 5.2499 -6.9067 -2.7807 -10.3312 30.0561 -1.5303 -3.6694 -24.9351 -0.3000 3.5215 -9.7343 -0.2622 1.7740 -1.1948 -2.8872 1.8914 -7.9411 -2.9668 0.7116 -7.5345 -5.7517 0.2708 -3.2443 10.3504 -1.1560 16.6706 4.1568 -0.4031 5.5927 -0.0000 0.0000 0.0000 -79.6840 11.7302 38.4595 89.5244 -59.9991 -59.5881 -0.0000 -0.0000 23.1966 34.0058 13.2316 8.7783 -7.1250 0.0000 -0.0000 6.2802 45.7203 0.1121 -0.0000 0.0000 0.0000 99.6955 -8.4051 40.3940 -89.4802 59.9990 -59.5498 0.0000 -0.0000 -0.7748 -5.7592 57.5763 -4.8661 7.1250 -0.0000 -0.0000 17.5676 25.6377 24.2266
0.00 0.00 0.00 530.8070 -84.0980 -529.4840 0.0000 0.0000 0.0000 -26.2364 -11.0575 -14.9788 4.3085 12.5600 37.7431 1.8697 -5.6130 -24.6767 0.2753 -3.3746 -9.3235 0.0000 0.0000 0.0000 14.7952 1.2442 -12.9117 -6.4292 -14.8317 46.6808 -0.4404 -6.3845 -16.4872 -0.7671 5.5930 -15.6079 -3.3501 1.2321 1.7562 1.5817 1.4182 -6.4963 3.4290 0.9071 -7.9271 -7.6494 -3.7269 -1.2989 6.7619 -5.7795 13.7598 3.0707 -2.9899 4.7379 0.0000 0.0000 0.0000 -81.3034 13.5194 35.4621 71.8629 -58.7198 -44.3604 -0.0000 -0.0000 29.2935 38.1652 13.3511 10.2865 -7.1250 0.0000 -0.0000 10.3131 46.5135 0.3893 0.0000 0.0000 0.0000 90.1662 -8.1257 28.4002 -103.9362 59.2533 -72.0388 0.0000 0.0000 6.4280 -14.8194 59.9526 -12.8993 7.1250 -0.0000 -0.0000 14.9265 29.2776 20.7583
0.00 0.00 0.00 500.9750 -88.2606 -502.7610 0.0000 0.0000 0.0000 -28.5095 -13.8063 -10.0595 4.0384 12.2113 36.4836 1.6413 -4.0230 -23.2612 0.0234 -0.9881 -2.7161 0.0000 0.0000 0.0000 14.0193 0.4225 -20.2890 -10.3995 -17.6285 60.8154 0.7916 -15.6748 -8.1961 -0.1588 -2.5678 7.0776 -3.6578 2.8258 4.9835 1.5322 3.5367 -4.7453 3.2397 1.9748 -8.1229 -10.8197 -7.1659 1.6058 9.0780 -10.5916 10.1928 4.1381 -5.4312 3.8261 0.0000 0.0000 0.0000 -67.1554 2.1648 26.9954 73.0057 -58.8801 -45.3379 -0.0000 -0.0000 27.2113 33.4090 2.4121 1.5902 -7.1250 0.0000 -0.0000 5.5311 32.8339 -1.6551 0.0000 0.0000 0.0000 87.1234 -1.7377 36.6442 -123.5485 55.2877 -88.5941 0.0000 0.0000 5.5694 -8.7691 43.0510 -6.0113 7.1250 -0.0000 -0.0000 13.9455 12.2959 17.0484
0.00 0.00 0.00 493.6880 -88.9687 -496.0340 0.0000 0.0000 0.0000 -28.1097 -12.8598 -10.2768 4.0101 12.1739 36.3498 1.6210 -4.8267 -22.9959 0.0892 -1.9267 -5.3030 0.0000 0.0000 0.0000 16.6177 1.5850 -25.2962 -9.3741 -17.0425 57.3749 -0.5113 -7.5266 -18.3073 -0.0846 1.8760 -5.1632 -2.2528 4.4498 7.9740 1.1056 5.7726 -4.8712 1.4755 2.9708 -10.0222 -13.4136 -9.0632 2.8247 10.6093 -13.4844 10.2220 4.8659 -6.9385 4.2132 -0.0000 -0.0000 0.0000 -54.6706 -4.0357 28.3839 83.0123 -59.8147 -53.9522 -0.0000 -0.0000 23.3777 37.3550 0.0193 0.0147 -7.1250 0.0000 -0.0000 8.4854 29.9488 -3.1472 -0.0000 -0.0000 0.0000 89.7671 1.9287 50.0037 -109.7404 58.4751 -77.0082 0.0000 0.0000 10.9550 -9.7689 35.5723 -5.7195 7.1250 -0.0000 -0.0000 12.6565 5.2178 14.0896
0.00 0.00 0.00 404.5180 -86.7593 -409.8220 0.0000 0.0000 0.0000 -30.4388 -8.9318 -11.8648 4.3560 12.6197 37.9610 1.3945 -8.4118 -21.1358 0.0752 -1.7695 -4.8691 0.0000 0.0000 0.0000 15.0491 7.2654 -23.6719 -6.5335 -14.9262 47.0872 -0.9299 -5.8550 -21.2413 -0.1432 2.4385 -6.7193 3.2990 6.8882 15.0442 0.1616 9.8924 -3.3084 -4.0483 4.4546 -11.5022 -17.8510 -12.6309 3.5267 11.0614 -18.2698 8.2000 5.2545 -9.3770 4.5379 -0.0000 0.0000 0.0000 -80.9856 -4.0155 62.8581 63.7486 -57.2288 -37.4771 -0.0000 -0.0000 34.3953 62.6959 11.3852 20.9267 -7.1250 0.0000 -0.0000 36.2582 49.7527 4.8165 -0.0000 0.0000 0.0000 94.9797 -16.5323 27.3813 -32.6941 43.0936 -13.2126 0.0000 0.0000 18.1320 -18.5745 53.4625 -15.1095 7.1250 -0.0000 -0.0000 11.6256 24.0371 15.5820
0.00 0.00 0.00 410.6980 -79.7278 -414.2310 0.0000 0.0000 0.0000 -35.4469 -4.1254 -18.1022 4.5906 12.9074 39.0229 0.4889 -15.8245 -15.6856 0.0569 -1.5399 -4.2357 0.0000 0.0000 0.0000 9.6832 1.0754 -26.3149 -12.1877 -18.4689 66.5827 -0.6981 -6.8071 -19.6983 -0.0703 1.7103 -4.7058 -0.6125 2.6685 13.2396 -3.3899 3.0921 -2.5255 -3.9869 1.3833 -10.0262 -14.0090 -9.7076 3.1808 13.3077 -13.9427 3.7592 5.8853 -7.0858 2.5167 0.0000 0.0000 0.0000 -90.3486 -1.7595 62.5676 37.3377 -46.4110 -16.4842 -0.0000 -0.0000 37.6190 63.6782 15.8404 28.8882 -7.1250 0.0000 -0.0000 42.9478 56.9031 14.3173 0.0000 0.0000 0.0000 89.5983 -21.7109 23.3276 -33.6549 43.8274 -13.8735 0.0000 0.0000 21.2454 -19.5749 57.6593 -16.7219 7.1250 -0.0000 -0.0000 12.5086 28.1344 17.1922
0.00 0.00 0.00 539.2810 -49.8493 -535.1430 0.0000 0.0000 0.0000 -21.4261 2.3855 -27.4000 4.3907 12.6629 38.1195 1.7978 8.7646 -29.7716 0.0122 0.7132 1.9600 0.0000 0.0000 0.0000 13.9587 3.2860 -6.6973 -4.5136 -12.8141 38.6766 -0.2649 -1.9574 -10.6426 -1.8060 8.4497 -24.0886 0.2781 0.5841 6.5367 -2.9592 0.3754 -6.0268 -3.3701 -0.0412 -10.0795 -3.6281 6.8847 -5.2463 14.4595 7.8165 10.7374 5.3078 4.3072 3.2842 -0.0000 -0.0000 0.0000 -85.6134 9.7928 10.8972 21.4813 -32.3858 -6.3057 -0.0000 -0.0000 39.8599 60.2876 28.1570 39.5871 -7.1250 0.0000 -0.0000 53.9942 70.4036 35.9811 -0.0000 -0.0000 0.0000 84.7566 -2.9793 58.0746 -54.0075 54.4892 -29.4064 0.0000 0.0000 14.2477 -1.6145 51.7744 -1.2685 7.1250 -0.0000 -0.0000 18.2393 19.6666 24.2932
